# xmcd
#
# Track frame offsets:
#   150
#   16232
#   32736
#   54761
#   71170
#   89802
#   105424
#   118576
#   133671
#   150950
#   168575
#   184687
#   200869
#   220034
#   240155
#   254347
#   270906
#   290897
#
# Disc length: 4168 seconds
#
# Revision: 0
# Processed by: cddbd v1.5.1PL0 Copyright (c) Steve Scherf et al.
# Submitted via: uFREEDB ActiveX Control 1.5
#
DISCID=fb104612
DTITLE=Shania Twain - Come On Over
DYEAR=1998
DGENRE=Country
TTITLE0=You're Still The One
TTITLE1=When
TTITLE2=From This Moment On
TTITLE3=Black Eyes, Blue Tears
TTITLE4=I Won't Leave You Lonely
TTITLE5=I'm Holding On To Love (To Save My Life)
TTITLE6=Come On Over
TTITLE7=You've Got Away
TTITLE8=Whatever You Do! Don't!
TTITLE9=Man! I Feel Like A Woman!
TTITLE10=Love Gets Me Every Time
TTITLE11=Don't Be Stupid (You Know I Love You)
TTITLE12=If You Wanna Touch Her, Ask!
TTITLE13=Rock This Country!
TTITLE14=No One Needs To Know
TTITLE15=The Don't Impress Me Much
TTITLE16=Whose Bed Have Your Boots Been Under
TTITLE17=The Woman In Me (Needs The Man In You)
EXTD=
EXTT0=
EXTT1=
EXTT2=
EXTT3=
EXTT4=
EXTT5=
EXTT6=
EXTT7=
EXTT8=
EXTT9=
EXTT10=
EXTT11=
EXTT12=
EXTT13=
EXTT14=
EXTT15=
EXTT16=
EXTT17=
PLAYORDER=
